<svg version="1.1" xmlns="http://www.w3.org/2000/svg" xmlns:xlink="http://www.w3.org/1999/xlink" width="135.31593" height="80.5835" viewBox="0,0,135.31593,80.5835"><g transform="translate(-170.17234,-128.37991)"><g data-paper-data="{&quot;isPaintingLayer&quot;:true}" fill-rule="nonzero" stroke-linecap="butt" stroke-linejoin="miter" stroke-miterlimit="10" stroke-dasharray="" stroke-dashoffset="0" style="mix-blend-mode: normal"><text transform="translate(184.79988,182.01012) scale(0.90304,0.90304)" font-size="40" xml:space="preserve" fill="#ffffff" fill-rule="nonzero" stroke="#000000" stroke-width="10" stroke-linecap="butt" stroke-linejoin="miter" stroke-miterlimit="10" stroke-dasharray="" stroke-dashoffset="0" font-family="Pixel" font-weight="normal" text-anchor="start" style="mix-blend-mode: normal"><tspan x="0" dy="0">PLAY</tspan></text><text transform="translate(184.79988,182.01012) scale(0.90304,0.90304)" font-size="40" xml:space="preserve" fill="#ffffff" fill-rule="nonzero" stroke="#000000" stroke-width="10" stroke-linecap="butt" stroke-linejoin="miter" stroke-miterlimit="10" stroke-dasharray="" stroke-dashoffset="0" font-family="Pixel" font-weight="normal" text-anchor="start" style="mix-blend-mode: normal"><tspan x="0" dy="0">PLAY</tspan></text><path d="M302.98754,168.56002c0,8.8696 0.25124,24.67538 -8.55769,31.11234c-11.85889,8.66565 -35.65743,6.56779 -56.16879,6.56779c-17.05542,0 -45.54787,0.79739 -57.10966,-5.47867c-12.67125,-6.87831 -7.29237,-19.69778 -7.61682,-32.20145c-0.27656,-10.65818 -0.50447,-23.99933 11.72186,-30.85379c11.63761,-6.5244 35.57184,-6.82633 53.00462,-6.82633c18.79449,0 45.12691,-0.20622 56.95166,7.24113c10.66612,6.71763 7.77482,20.56994 7.77482,30.43901z" fill="#00a9ff" stroke="#000000" stroke-width="5"/><g fill="#ffffff" font-family="Pixel" font-weight="normal" font-size="40" text-anchor="start"><text transform="translate(186.09765,182.33456) scale(0.90303,0.90303)" font-size="40" xml:space="preserve" fill="#ffffff" fill-rule="nonzero" stroke="#000000" stroke-width="10" stroke-linecap="butt" stroke-linejoin="miter" stroke-miterlimit="10" stroke-dasharray="" stroke-dashoffset="0" font-family="Pixel" font-weight="normal" text-anchor="start" style="mix-blend-mode: normal"><tspan x="0" dy="0">PLAY</tspan></text><text transform="translate(186.09765,182.33456) scale(0.90304,0.90304)" font-size="40" xml:space="preserve" fill="#ffffff" fill-rule="nonzero" stroke="#000000" stroke-width="10" stroke-linecap="butt" stroke-linejoin="miter" stroke-miterlimit="10" stroke-dasharray="" stroke-dashoffset="0" font-family="Pixel" font-weight="normal" text-anchor="start" style="mix-blend-mode: normal"><tspan x="0" dy="0">PLAY</tspan></text><text transform="translate(186.09765,182.33456) scale(0.90304,0.90304)" font-size="40" xml:space="preserve" fill="#ffffff" fill-rule="nonzero" stroke="#ffa9a9" stroke-width="2" stroke-linecap="butt" stroke-linejoin="miter" stroke-miterlimit="10" stroke-dasharray="" stroke-dashoffset="0" font-family="Pixel" font-weight="normal" text-anchor="start" style="mix-blend-mode: normal"><tspan x="0" dy="0">PLAY</tspan></text></g></g></g></svg>