<svg version="1.1" xmlns="http://www.w3.org/2000/svg" xmlns:xlink="http://www.w3.org/1999/xlink" width="186.84159" height="80.5835" viewBox="0,0,186.84159,80.5835"><g transform="translate(-144.17236,-215.71324)"><g data-paper-data="{&quot;isPaintingLayer&quot;:true}" fill-rule="nonzero" stroke-linecap="butt" stroke-linejoin="miter" stroke-miterlimit="10" stroke-dasharray="" stroke-dashoffset="0" style="mix-blend-mode: normal"><text transform="translate(174.79988,272.01012) scale(0.90304,0.90304)" font-size="40" xml:space="preserve" fill="#ffffff" fill-rule="nonzero" stroke="#000000" stroke-width="10" stroke-linecap="butt" stroke-linejoin="miter" stroke-miterlimit="10" stroke-dasharray="" stroke-dashoffset="0" font-family="Pixel" font-weight="normal" text-anchor="start" style="mix-blend-mode: normal"><tspan x="0" dy="0">PLAY</tspan></text><text transform="translate(174.79988,272.01012) scale(0.90304,0.90304)" font-size="40" xml:space="preserve" fill="#ffffff" fill-rule="nonzero" stroke="#000000" stroke-width="10" stroke-linecap="butt" stroke-linejoin="miter" stroke-miterlimit="10" stroke-dasharray="" stroke-dashoffset="0" font-family="Pixel" font-weight="normal" text-anchor="start" style="mix-blend-mode: normal"><tspan x="0" dy="0">PLAY</tspan></text><path d="M328.51292,255.89335c0,8.8696 0.35058,24.67538 -11.94132,31.11234c-16.54778,8.66565 -49.75604,6.56779 -78.37739,6.56779c-23.79897,0 -63.55706,0.79739 -79.69027,-5.47867c-17.68134,-6.87831 -10.1757,-19.69778 -10.62844,-32.20145c-0.38591,-10.65818 -0.70393,-23.99933 16.35657,-30.85379c16.23901,-6.5244 49.63661,-6.82633 73.96214,-6.82633c26.22565,0 62.96966,-0.20622 79.4698,7.24113c14.8834,6.71763 10.84891,20.56994 10.84891,30.43901z" fill="#00a9ff" stroke="#000000" stroke-width="5"/><text transform="translate(164.38168,267.89479) scale(0.77465,0.77465)" font-size="40" xml:space="preserve" fill="#000000" fill-rule="nonzero" stroke="#000000" stroke-width="10" stroke-linecap="butt" stroke-linejoin="miter" stroke-miterlimit="10" stroke-dasharray="" stroke-dashoffset="0" font-family="Pixel" font-weight="normal" text-anchor="start" style="mix-blend-mode: normal"><tspan x="0" dy="0">OPTIONS</tspan></text><text transform="translate(164.38169,267.89479) scale(0.77466,0.77466)" font-size="40" xml:space="preserve" fill="#fffbfb" fill-rule="nonzero" stroke="#ffafaf" stroke-width="2" stroke-linecap="butt" stroke-linejoin="miter" stroke-miterlimit="10" stroke-dasharray="" stroke-dashoffset="0" font-family="Pixel" font-weight="normal" text-anchor="start" style="mix-blend-mode: normal"><tspan x="0" dy="0">OPTIONS</tspan></text></g></g></svg>